<svg xmlns="http://www.w3.org/2000/svg" viewBox="0 0 140.85 68"><defs><style>.cls-1{fill:#cfd1cf;}.cls-2{fill:none;}.cls-3{fill:#248a3d;}</style></defs><title>Asset 1</title><g id="Layer_2" data-name="Layer 2"><g id="Layer_1-2" data-name="Layer 1"><g id="_Group_" data-name="&lt;Group&gt;"><g id="_Group_2" data-name="&lt;Group&gt;"><polygon id="_Path_" data-name="&lt;Path&gt;" class="cls-1" points="0 67.89 1.01 67.89 1.01 65.22 3.93 65.22 3.93 64.17 1.01 64.17 1.01 62.38 4.3 62.38 4.3 61.33 0 61.33 0 67.89"/><path id="_Path_2" data-name="&lt;Path&gt;" class="cls-1" d="M11.31,65.1c0,1.21-.55,1.83-1.45,1.83S8.4,66.27,8.4,65.06V61.33h-1V65.1c0,1.9,1,2.89,2.46,2.89s2.49-1,2.49-2.94V61.33h-1Z"/><polygon id="_Path_3" data-name="&lt;Path&gt;" class="cls-1" points="16.79 61.33 15.78 61.33 15.78 67.89 19.83 67.89 19.83 66.84 16.79 66.84 16.79 61.33"/><polygon id="_Path_4" data-name="&lt;Path&gt;" class="cls-1" points="23.96 61.33 22.95 61.33 22.95 67.89 27 67.89 27 66.84 23.96 66.84 23.96 61.33"/><path id="_Path_5" data-name="&lt;Path&gt;" class="cls-1" d="M32.34,64.08c-1.1-.3-1.37-.52-1.37-1v0c0-.43.35-.78.94-.78a2.46,2.46,0,0,1,1.57.68l.55-.87a3,3,0,0,0-2.1-.83,1.86,1.86,0,0,0-2,1.91h0c0,1.21.69,1.62,1.92,2,1.07.28,1.3.54,1.3,1v0c0,.5-.39.83-1,.83a2.5,2.5,0,0,1-1.82-.85l-.62.82a3.36,3.36,0,0,0,2.42,1,1.89,1.89,0,0,0,2.06-2v0C34.2,64.92,33.56,64.42,32.34,64.08Z"/><polygon id="_Path_6" data-name="&lt;Path&gt;" class="cls-1" points="36.92 62.4 38.75 62.4 38.75 67.89 39.77 67.89 39.77 62.4 41.61 62.4 41.61 61.33 36.92 61.33 36.92 62.4"/><path id="_Compound_Path_" data-name="&lt;Compound Path&gt;" class="cls-1" d="M46,61.28l-2.54,6.6h1l.59-1.58h2.74l.58,1.58h1.08L47,61.28Zm-.54,4,1-2.62,1,2.62Z"/><path id="_Path_7" data-name="&lt;Path&gt;" class="cls-1" d="M54.93,66.94A2.12,2.12,0,0,1,53,64.61v0a2.1,2.1,0,0,1,1.9-2.32,2.18,2.18,0,0,1,1.62.82l.65-.85a2.83,2.83,0,0,0-2.26-1,3.15,3.15,0,0,0-3,3.4h0A3.13,3.13,0,0,0,54.9,68a2.83,2.83,0,0,0,2.34-1.16l-.65-.75A2.16,2.16,0,0,1,54.93,66.94Z"/><polygon id="_Path_8" data-name="&lt;Path&gt;" class="cls-1" points="65.38 61.33 64.13 61.33 61.38 64.63 61.38 61.33 60.37 61.33 60.37 67.89 61.38 67.89 61.38 65.98 62.28 64.93 64.25 67.89 65.48 67.89 62.98 64.15 65.38 61.33"/><path id="_Compound_Path_2" data-name="&lt;Compound Path&gt;" class="cls-1" d="M75.1,61.33H72.94v6.55H75.1a3.08,3.08,0,0,0,3.07-3.27v0A3.07,3.07,0,0,0,75.1,61.33Zm2,3.29a2,2,0,0,1-2,2.22H74V62.38H75.1a2,2,0,0,1,2,2.23Z"/><polygon id="_Path_9" data-name="&lt;Path&gt;" class="cls-1" points="82.47 65.09 85.37 65.09 85.37 64.06 82.47 64.06 82.47 62.36 85.74 62.36 85.74 61.33 81.45 61.33 81.45 67.89 85.78 67.89 85.78 66.85 82.47 66.85 82.47 65.09"/><polygon id="_Path_10" data-name="&lt;Path&gt;" class="cls-1" points="91.41 66.37 89.67 61.33 88.55 61.33 90.95 67.93 91.84 67.93 94.24 61.33 93.15 61.33 91.41 66.37"/><polygon id="_Path_11" data-name="&lt;Path&gt;" class="cls-1" points="98.31 65.09 101.2 65.09 101.2 64.06 98.31 64.06 98.31 62.36 101.58 62.36 101.58 61.33 97.29 61.33 97.29 67.89 101.62 67.89 101.62 66.85 98.31 66.85 98.31 65.09"/><polygon id="_Path_12" data-name="&lt;Path&gt;" class="cls-1" points="105.89 61.33 104.88 61.33 104.88 67.89 108.93 67.89 108.93 66.84 105.89 66.84 105.89 61.33"/><path id="_Compound_Path_3" data-name="&lt;Compound Path&gt;" class="cls-1" d="M114.49,61.21a3.19,3.19,0,0,0-3,3.4h0a3,3,0,1,0,6,0v0A3.15,3.15,0,0,0,114.49,61.21Zm2,3.41a2.11,2.11,0,0,1-2,2.32,2.13,2.13,0,0,1-2-2.33v0a2.11,2.11,0,0,1,1.94-2.32,2.15,2.15,0,0,1,2,2.34Z"/><path id="_Compound_Path_4" data-name="&lt;Compound Path&gt;" class="cls-1" d="M123.07,61.33h-2.28v6.55h1v-2.1H123a2.14,2.14,0,0,0,2.31-2.24v0A2.05,2.05,0,0,0,123.07,61.33Zm1.16,2.24A1.14,1.14,0,0,1,123,64.74H121.8V62.38H123a1.1,1.1,0,0,1,1.24,1.17Z"/><polygon id="_Path_13" data-name="&lt;Path&gt;" class="cls-1" points="129.38 65.09 132.27 65.09 132.27 64.06 129.38 64.06 129.38 62.36 132.65 62.36 132.65 61.33 128.36 61.33 128.36 67.89 132.69 67.89 132.69 66.85 129.38 66.85 129.38 65.09"/><path id="_Compound_Path_5" data-name="&lt;Compound Path&gt;" class="cls-1" d="M140.67,63.42v0a2.14,2.14,0,0,0-.48-1.42,2.17,2.17,0,0,0-1.67-.65H136v6.55h1V65.6h1.28l1.42,2.28h1.19l-1.56-2.48A1.93,1.93,0,0,0,140.67,63.42ZM137,64.58v-2.2h1.48c.75,0,1.2.38,1.2,1.08v0a1.07,1.07,0,0,1-1.19,1.1Z"/></g><g id="_Group_3" data-name="&lt;Group&gt;"><path id="_Compound_Path_6" data-name="&lt;Compound Path&gt;" class="cls-1" d="M20.45,11.47V11.4C20.45,5,15.54.16,8.43.16H0V22.77H8.43C15.54,22.77,20.45,17.83,20.45,11.47ZM4,3.78H8.43c4.75,0,7.85,3.26,7.85,7.69v.06c0,4.43-3.1,7.62-7.85,7.62H4Z"/><path id="_Compound_Path_7" data-name="&lt;Compound Path&gt;" class="cls-1" d="M31.41,17.31H42.1l2.29,5.46h4.2L38.64,0H35L25,22.77h4.07ZM36.73,4.75l3.91,9H32.86Z"/><polygon id="_Path_14" data-name="&lt;Path&gt;" class="cls-1" points="59.61 6.69 72.08 22.77 75.41 22.77 75.41 0.16 71.5 0.16 71.5 15.79 59.39 0.16 55.7 0.16 55.7 22.77 59.61 22.77 59.61 6.69"/><rect id="_Path_15" data-name="&lt;Path&gt;" class="cls-1" x="84.69" y="0.16" width="3.97" height="22.61"/><polygon id="_Path_16" data-name="&lt;Path&gt;" class="cls-1" points="114.86 19.22 101.91 19.22 101.91 13.15 113.24 13.15 113.24 9.59 101.91 9.59 101.91 3.71 114.7 3.71 114.7 0.16 97.93 0.16 97.93 22.77 114.86 22.77 114.86 19.22"/><polygon id="_Path_17" data-name="&lt;Path&gt;" class="cls-1" points="140.85 19.22 127.9 19.22 127.9 13.15 127.9 13.15 127.9 9.59 127.9 9.59 127.9 3.71 127.9 3.71 127.94 0.16 123.93 0.16 123.93 22.77 140.85 22.77 140.85 19.22"/><line class="cls-2" x1="114.7" y1="1.5" x2="123.93" y2="1.5"/></g><g id="_Group_4" data-name="&lt;Group&gt;"><path id="_Compound_Path_8" data-name="&lt;Compound Path&gt;" class="cls-1" d="M11.28,28.88H0V56.34H6.07V48.1h4.62c6.19,0,11.16-3.29,11.16-9.65v-.08C21.85,32.76,17.87,28.88,11.28,28.88Zm4.42,9.69c0,2.35-1.78,4.16-4.81,4.16H6.07v-8.4h4.7c3,0,4.93,1.45,4.93,4.16Z"/><path id="_Compound_Path_9" data-name="&lt;Compound Path&gt;" class="cls-1" d="M83.72,56.34,77,46.53A8.53,8.53,0,0,0,82.89,38v-.08a8.57,8.57,0,0,0-2.37-6.27c-1.81-1.81-4.53-2.79-8-2.79H59.85V56.34h6.08V47.55H70.7l5.92,8.79ZM72.08,42.22H65.93V34.33h6c3,0,4.78,1.34,4.78,3.93v.08C76.74,40.65,75,42.22,72.08,42.22Z"/><polygon id="_Path_18" data-name="&lt;Path&gt;" class="cls-1" points="86.39 34.45 94.79 34.45 94.79 56.34 100.86 56.34 100.86 34.45 109.27 34.45 109.27 28.88 86.39 28.88 86.39 34.45"/><path id="_Path_19" data-name="&lt;Path&gt;" class="cls-3" d="M43.84,56.28l5,4.93v-.66l-4.44-4.41L30.77,42.61,44.39,29.06l4.42-4.39V24l-5,4.92a15.94,15.94,0,0,0-4-.52c-8.52,0-14.71,6.39-14.71,14.2v.08c0,7.81,6.11,14.12,14.63,14.12A16,16,0,0,0,43.84,56.28Z"/><path id="_Path_20" data-name="&lt;Path&gt;" class="cls-3" d="M54.46,42.53a13.86,13.86,0,0,0-5-10.76V32L38.8,42.61,49.47,53.23v.15a14,14,0,0,0,5-10.77Z"/><path id="_Path_21" data-name="&lt;Path&gt;" class="cls-3" d="M111.51,42.61v.08a13.84,13.84,0,0,0,5,10.76v-.22l10.67-10.62L116.5,32v-.14A14,14,0,0,0,111.51,42.61Z"/><path id="_Path_22" data-name="&lt;Path&gt;" class="cls-3" d="M126.22,28.41a16,16,0,0,0-4.09.54l-5-4.94v.66l4.44,4.42,13.6,13.52L121.58,56.16l-4.42,4.39v.66l5-4.91a16.41,16.41,0,0,0,4,.51c8.52,0,14.71-6.39,14.71-14.2v-.08C140.85,34.73,134.74,28.41,126.22,28.41Z"/></g></g></g></g></svg>